<svg width="32" height="32" viewBox="0 0 32 32" fill="none" xmlns="http://www.w3.org/2000/svg">
<g clip-path="url(#clip0_4472_930)">
<mask id="mask0_4472_930" style="mask-type:luminance" maskUnits="userSpaceOnUse" x="4" y="2" width="24" height="28">
<path d="M27.3333 2H4V30H27.3333V2Z" fill="white"/>
</mask>
<g mask="url(#mask0_4472_930)">
<path d="M18.4023 14.3687C18.4646 14.7206 18.5929 14.9131 18.7698 14.9131C18.8243 14.9131 18.8826 14.8956 18.9429 14.8625C19.0771 14.7887 19.1432 14.5534 19.1704 14.3823C19.0382 14.4406 18.9098 14.4698 18.7854 14.4698C18.6221 14.4698 18.4937 14.4212 18.4023 14.3687Z" fill="#75A237"/>
<path d="M18.8691 21.2814C18.8691 21.4817 19.0072 21.6314 19.2464 21.6314C19.3922 21.6314 19.5341 21.5789 19.5341 21.4136V20.7622C19.1939 20.8283 18.8691 20.9314 18.8691 21.2814Z" fill="#75A237"/>
<path d="M4.01953 2.07227V30.0723H23.1529L27.3528 25.9423V2.07227H4.01953ZM19.2601 19.8912C19.052 19.8912 18.9626 20.0409 18.9198 20.1692C18.8712 20.315 18.772 20.3734 18.632 20.3734C18.4765 20.3734 18.3481 20.28 18.3481 20.1167C18.3481 19.8989 18.6281 19.5587 19.3495 19.5587C19.8006 19.5587 20.1604 19.7803 20.1604 20.2548V21.4642C20.1604 21.6548 20.1195 21.7423 19.9873 21.8278C19.8765 21.8978 19.5615 21.9698 19.264 21.9698C18.7448 21.9698 18.249 21.8103 18.249 21.3359C18.249 20.7292 18.9859 20.5873 19.5343 20.4842V20.1925C19.5343 20.002 19.4195 19.8912 19.2601 19.8912ZM18.3734 16.6537L15.7056 13.6262L15.729 13.5795C15.7445 13.5503 16.1023 12.8406 16.8587 12.8406C17.4634 12.8406 17.8659 13.1537 18.1323 13.3617C18.1945 13.4103 18.247 13.4512 18.2956 13.4823C18.4298 13.5698 18.6359 13.6884 18.8673 13.6884C19.0987 13.6884 19.3068 13.5756 19.5031 13.3539C19.9718 12.825 20.1584 11.9092 20.0729 10.5539C19.9776 10.4003 19.2406 9.20449 18.6301 7.7656C18.4765 7.65671 17.4634 6.92366 17.129 6.21977C16.744 5.41282 17.0026 4.99088 17.2865 4.77893L17.3273 4.74782L20.2129 6.58143C20.242 6.60477 20.4326 6.76616 20.5045 6.86532C20.5279 6.89838 20.6679 7.08116 20.8448 7.31254C21.1637 7.7306 21.6031 8.30421 21.7295 8.4831L21.7781 8.5531C22.1962 9.14227 22.6862 9.86366 22.762 10.2175C22.8145 10.4645 22.9643 11.3084 23.1218 12.2009C23.2326 12.8212 23.3493 13.4784 23.4445 14.0073C23.6778 15.2906 23.8956 16.5584 23.8976 16.572L23.9131 16.6614L18.3695 16.6537H18.3734ZM9.96953 19.8912C9.76148 19.8912 9.67203 20.0409 9.62731 20.1692C9.5787 20.315 9.48148 20.3734 9.33953 20.3734C9.18398 20.3734 9.05564 20.28 9.05564 20.1167C9.05564 19.8989 9.33564 19.5587 10.057 19.5587C10.5081 19.5587 10.8679 19.7803 10.8679 20.2548V21.4642C10.8679 21.6548 10.829 21.7423 10.6948 21.8278C10.584 21.8978 10.269 21.9698 9.97148 21.9698C9.45231 21.9698 8.95648 21.8103 8.95648 21.3359C8.95648 20.7292 9.69148 20.5873 10.2418 20.4842V20.1925C10.2418 20.002 10.127 19.8912 9.96759 19.8912H9.96953ZM7.45731 16.6575L7.48842 16.5584C7.50981 16.4884 9.69731 9.43199 9.82759 9.00032C9.95203 8.58616 10.2573 8.35671 10.6793 8.03977C10.7298 8.00088 10.7823 7.96199 10.8368 7.92116C11.3462 7.53421 13.5298 5.87754 13.5298 5.87754L13.5493 5.86199H16.1704L18.0429 7.56338L18.0331 7.60616C17.9631 7.90366 17.7337 8.24393 17.304 8.31199C17.2515 8.31977 17.199 8.3256 17.1465 8.3256C16.8179 8.3256 16.5301 8.16032 16.1976 7.96782L16.1081 7.91532C15.7154 7.68977 15.4684 7.61393 15.274 7.67032L14.3834 7.92116C14.2609 8.04171 13.3801 8.91282 13.2362 9.0606C13.1993 9.09949 13.1254 9.16949 13.032 9.25893C12.7579 9.52143 12.2484 10.0056 12.1804 10.1553C12.089 10.3575 12.1823 10.6414 12.262 10.8378C12.3515 11.0575 12.4934 11.3959 12.8804 12.2203C13.032 12.545 13.2031 12.7025 13.3995 12.7025C13.5959 12.7025 13.7884 12.5567 13.9401 12.4303C14.2765 12.1484 14.8384 11.6778 15.447 11.6778C15.5248 11.6778 15.6026 11.6856 15.6765 11.7012C16.3551 11.845 16.6156 12.302 16.6273 12.3214L16.6565 12.372L12.0929 16.6575H7.45925H7.45731ZM14.7062 19.5645C14.9143 19.5645 15.0562 19.6345 15.1145 19.6714V18.6175C15.1145 18.5553 15.1418 18.5242 15.202 18.5242H15.6668C15.729 18.5242 15.7601 18.5553 15.7601 18.6175V21.4798C15.7601 21.6489 15.7154 21.7325 15.587 21.8162C15.4665 21.8959 15.1476 21.9717 14.8462 21.9717C14.0004 21.9717 13.6756 21.472 13.6756 20.8245C13.6756 20.177 14.0256 19.5664 14.7043 19.5664L14.7062 19.5645ZM7.05092 21.82V18.8762C7.05092 18.8139 7.08203 18.7828 7.14425 18.7828H7.66731C7.72953 18.7828 7.75675 18.8139 7.75675 18.8762V21.4467H8.66092C8.72314 21.4467 8.75037 21.4778 8.75037 21.54V21.82C8.75037 21.8823 8.72314 21.9134 8.66092 21.9134H7.14425C7.08203 21.9134 7.05092 21.8823 7.05092 21.82ZM10.2709 26.3428H10.0006C9.95981 26.3428 9.93453 26.3253 9.91703 26.2806L9.56314 25.2656H8.39259L8.03287 26.2806C8.01925 26.3195 8.00175 26.3428 7.95314 26.3428H7.73537C7.69064 26.3428 7.66925 26.3117 7.66925 26.2806C7.66925 26.2631 7.67314 26.2534 7.68675 26.2184L8.79898 23.2803C8.81259 23.2414 8.83009 23.2142 8.88259 23.2142H9.12175C9.17036 23.2142 9.19175 23.2414 9.20537 23.2803L10.3137 26.2184C10.3215 26.2456 10.3312 26.2709 10.3312 26.2806C10.3312 26.3156 10.3137 26.3428 10.269 26.3428H10.2709ZM12.3612 25.9656C12.3612 26.1348 12.2951 26.2087 12.2056 26.2631C12.1045 26.3253 11.8459 26.3953 11.492 26.3953C11.212 26.3953 10.6598 26.3253 10.6598 25.7128V24.1125C10.6598 24.0678 10.6812 24.0464 10.7259 24.0464H10.9651C11.0098 24.0464 11.0273 24.0678 11.0273 24.1125V25.6953C11.0273 26.0103 11.2179 26.16 11.5115 26.16C11.9373 26.16 11.9937 26.022 11.9937 25.845V24.1125C11.9937 24.0678 12.0112 24.0464 12.0559 24.0464H12.2951C12.3398 24.0464 12.3612 24.0678 12.3612 24.1125V25.9656ZM12.6684 21.82V20.2684C12.6684 20.0778 12.579 19.9048 12.297 19.9048C12.0151 19.9048 11.9684 20.037 11.9684 20.175V21.82C11.9684 21.8823 11.9373 21.9134 11.8751 21.9134H11.4045C11.3423 21.9134 11.317 21.8823 11.317 21.82V19.9767C11.317 19.8212 11.3559 19.7589 11.4979 19.6928C11.6573 19.617 11.9723 19.5606 12.3126 19.5606C12.8668 19.5606 13.3179 19.7434 13.3179 20.2392V21.822C13.3179 21.8842 13.2906 21.9153 13.2284 21.9153H12.754C12.6918 21.9153 12.6645 21.8842 12.6645 21.822L12.6684 21.82ZM13.592 26.3973C13.0301 26.3973 12.8084 26.0162 12.8084 25.8528C12.8084 25.7323 12.892 25.6759 12.9815 25.6759C13.0709 25.6759 13.1273 25.7284 13.1623 25.8178C13.242 26.0298 13.3568 26.1853 13.6095 26.1853C13.8176 26.1853 14.0004 26.0298 14.0004 25.7828C14.0004 25.215 12.8531 25.3123 12.8531 24.6259C12.8531 24.1962 13.1759 23.9959 13.5843 23.9959C14.1073 23.9959 14.2881 24.3284 14.2881 24.4742C14.2881 24.5889 14.2123 24.6375 14.1326 24.6375C14.0431 24.6375 13.9906 24.5889 13.9595 24.5131C13.8934 24.3537 13.7904 24.1845 13.5687 24.1845C13.3295 24.1845 13.1915 24.3167 13.1915 24.5481C13.1915 25.0984 14.3523 24.9778 14.3523 25.7148C14.3523 26.1309 14.0509 26.3973 13.5901 26.3973H13.592ZM15.4568 26.3875C15.2662 26.3875 14.9376 26.3175 14.9376 25.7848V24.2603H14.6887C14.644 24.2603 14.6265 24.2428 14.6265 24.1981V24.1145C14.6265 24.0698 14.644 24.0484 14.6887 24.0484H14.9376V23.6848C14.9376 23.64 14.9415 23.6128 14.9823 23.5914L15.2118 23.4534C15.2293 23.4456 15.239 23.4398 15.2526 23.4398C15.2876 23.4398 15.3051 23.4573 15.3051 23.502V24.0464H15.6959C15.7406 24.0464 15.7581 24.0678 15.7581 24.1125V24.1962C15.7581 24.2409 15.7406 24.2584 15.6959 24.2584H15.3051V25.7867C15.3051 26.1095 15.4645 26.1717 15.5929 26.1717C15.6454 26.1717 15.6687 26.1581 15.7076 26.1581C15.7698 26.1581 15.797 26.1892 15.797 26.2339C15.797 26.3175 15.6551 26.3837 15.4548 26.3837L15.4568 26.3875ZM17.1679 19.5606C17.7531 19.5606 18.0273 19.9184 18.0273 20.142C18.0273 20.3112 17.934 20.42 17.7493 20.42C17.5976 20.42 17.5179 20.3403 17.4615 20.1848C17.4265 20.0914 17.3545 19.9048 17.1329 19.9048C16.9112 19.9048 16.7206 20.1439 16.7206 20.5912C16.7206 21.0384 16.9034 21.4467 17.3059 21.4467C17.5529 21.4467 17.6695 21.2834 17.757 21.1453C17.792 21.0928 17.8406 21.0617 17.9029 21.0617C17.9826 21.0617 18.0351 21.1239 18.0351 21.2075C18.0351 21.5439 17.6851 21.9698 17.1445 21.9698C16.604 21.9698 16.1159 21.5848 16.1159 20.7681C16.1159 20.0098 16.5145 19.5587 17.1659 19.5587L17.1679 19.5606ZM17.2904 24.4256C17.1037 24.4256 17.1212 24.2078 16.8645 24.2078C16.6643 24.2078 16.5456 24.3012 16.5456 24.4606V26.2767C16.5456 26.3214 16.5243 26.3428 16.4795 26.3428H16.2404C16.1956 26.3428 16.1781 26.3214 16.1781 26.2767V24.3887C16.1781 24.2506 16.2268 24.1806 16.3512 24.1184C16.4756 24.0562 16.7109 23.9939 16.9579 23.9939C17.3176 23.9939 17.4595 24.1184 17.4595 24.2603C17.4595 24.3575 17.4012 24.4237 17.2904 24.4237V24.4256ZM19.2659 25.9189C19.2659 26.1095 19.2173 26.1853 19.1065 26.265C19.0229 26.3234 18.7604 26.3973 18.4998 26.3973C17.9865 26.3973 17.6404 26.1717 17.6404 25.7848C17.6404 25.1956 18.3637 25.0362 18.912 24.9292V24.6142C18.912 24.3653 18.7565 24.1981 18.5406 24.1981C18.2529 24.1981 18.1323 24.4062 18.0759 24.5889C18.0545 24.6609 18.0098 24.7212 17.9029 24.7212C17.8134 24.7212 17.7395 24.6628 17.7395 24.552C17.7395 24.3789 17.9748 23.9939 18.5951 23.9939C18.949 23.9939 19.2698 24.2078 19.2698 24.6317V25.917L19.2659 25.9189ZM20.2226 26.2787C20.2226 26.3234 20.2012 26.3448 20.1565 26.3448H19.9173C19.8726 26.3448 19.8512 26.3234 19.8512 26.2787V23.0217C19.8512 22.977 19.8726 22.9556 19.9173 22.9556H20.1565C20.2012 22.9556 20.2226 22.977 20.2226 23.0217V26.2787ZM21.2415 26.2787C21.2415 26.3234 21.2201 26.3448 21.1754 26.3448H20.9362C20.8915 26.3448 20.8701 26.3234 20.8701 26.2787V24.1164C20.8701 24.0717 20.8915 24.0503 20.9362 24.0503H21.1754C21.2201 24.0503 21.2415 24.0717 21.2415 24.1164V26.2787ZM21.0548 23.6012C20.9206 23.6012 20.8254 23.5078 20.8254 23.3931C20.8254 23.2784 20.9226 23.185 21.0548 23.185C21.187 23.185 21.2843 23.2784 21.2843 23.3931C21.2843 23.5078 21.187 23.6012 21.0548 23.6012ZM21.4826 19.9106C21.3445 19.9106 21.257 19.9806 21.257 20.1012V21.82C21.257 21.8823 21.2259 21.9134 21.1637 21.9134H20.6931C20.6309 21.9134 20.6056 21.8823 20.6056 21.82V19.9767C20.6056 19.8212 20.6504 19.7589 20.7923 19.6928C20.9381 19.6267 21.2259 19.5606 21.5448 19.5606C22.0154 19.5606 22.2059 19.7239 22.2059 19.9378C22.2059 20.107 22.1165 20.2159 21.9493 20.2159C21.6576 20.2159 21.7315 19.9106 21.4845 19.9106H21.4826ZM23.3512 25.9189C23.3512 26.1095 23.3026 26.1853 23.1918 26.265C23.1081 26.3234 22.8456 26.3973 22.5851 26.3973C22.0698 26.3973 21.7256 26.1717 21.7256 25.7848C21.7256 25.1956 22.449 25.0362 22.9973 24.9292V24.6142C22.9973 24.3653 22.8418 24.1981 22.6259 24.1981C22.3381 24.1981 22.2176 24.4062 22.1593 24.5889C22.1379 24.6609 22.0931 24.7212 21.9862 24.7212C21.8968 24.7212 21.8229 24.6628 21.8229 24.552C21.8229 24.3789 22.0581 23.9939 22.6784 23.9939C23.0343 23.9939 23.3531 24.2078 23.3531 24.6317V25.917L23.3512 25.9189ZM23.4056 21.9717C22.8126 21.9717 22.3323 21.6081 22.3323 20.7487C22.3323 19.8892 22.834 19.5606 23.3998 19.5606C23.9656 19.5606 24.3117 19.9728 24.3117 20.4609C24.3117 20.5892 24.2592 20.6242 24.1484 20.6417L22.9293 20.842C22.9681 21.1842 23.1548 21.4681 23.532 21.4681C23.7887 21.4681 23.9656 21.2912 24.0551 21.1628C24.0862 21.1181 24.1309 21.0831 24.1912 21.0831C24.2631 21.0831 24.3195 21.1453 24.3195 21.225C24.3195 21.5537 23.9481 21.9737 23.4018 21.9737L23.4056 21.9717Z" fill="#82A523"/>
<path d="M17.998 25.7554C17.998 25.9809 18.1672 26.1851 18.5036 26.1851C18.6942 26.1851 18.9119 26.1268 18.9119 25.9071V25.104C18.4297 25.2051 18 25.3334 18 25.7554H17.998Z" fill="#75A237"/>
<path d="M8.97992 23.4863H8.9702C8.9527 23.5836 8.91186 23.7916 8.83798 24.0055L8.47437 25.0302H9.47575L9.11603 24.0055C9.04409 23.811 8.99548 23.5855 8.97798 23.4863H8.97992Z" fill="#75A237"/>
<path d="M14.8461 21.5823C15.023 21.5823 15.1125 21.5123 15.1125 21.382V19.982C15.0542 19.9412 14.9744 19.8984 14.8383 19.8984C14.5369 19.8984 14.3328 20.2134 14.3328 20.7443C14.3328 21.2751 14.5855 21.5823 14.8461 21.5823Z" fill="#75A237"/>
<path d="M23.3296 19.9023C23.0204 19.9023 22.8999 20.2271 22.8901 20.5226L23.7068 20.3846C23.6971 20.1454 23.6038 19.9023 23.3296 19.9023Z" fill="#75A237"/>
<path d="M9.57861 21.2814C9.57861 21.4817 9.71472 21.6314 9.95584 21.6314C10.1017 21.6314 10.2436 21.5789 10.2436 21.4136V20.7622C9.90334 20.8283 9.57861 20.9314 9.57861 21.2814Z" fill="#75A237"/>
<path d="M22.0833 25.7554C22.0833 25.9809 22.2524 26.1851 22.5888 26.1851C22.7794 26.1851 22.9971 26.1268 22.9971 25.9071V25.104C22.5149 25.2051 22.0852 25.3334 22.0852 25.7554H22.0833Z" fill="#75A237"/>
<path d="M16.6545 12.3699L16.6253 12.3193C16.6156 12.2999 16.3531 11.8429 15.6745 11.699C15.6006 11.6835 15.5228 11.6757 15.445 11.6757C14.8364 11.6757 14.2745 12.1463 13.9381 12.4282C13.7864 12.5546 13.59 12.7004 13.3975 12.7004C13.205 12.7004 13.03 12.5429 12.8784 12.2182C12.4914 11.3938 12.3495 11.0574 12.26 10.8357C12.1803 10.6393 12.087 10.3554 12.1784 10.1532C12.2445 10.0054 12.7559 9.51931 13.03 9.25681C13.1234 9.16931 13.1973 9.09736 13.2342 9.05847C13.3781 8.9107 14.2589 8.03959 14.3814 7.91903L15.272 7.6682C15.4664 7.61375 15.7134 7.68764 16.1062 7.9132L16.1956 7.9657C16.5281 8.15625 16.8139 8.32347 17.1445 8.32347C17.197 8.32347 17.2495 8.31764 17.302 8.30986C17.7317 8.24181 17.9612 7.90153 18.0312 7.60403L18.0409 7.56125L16.1684 5.85986H13.5473L13.5278 5.87542C13.5278 5.87542 11.3442 7.53014 10.8348 7.91903C10.7803 7.95986 10.7278 8.0007 10.6773 8.03764C10.2553 8.35459 9.95004 8.58403 9.8256 8.9982C9.69532 9.42986 7.50977 16.4863 7.48643 16.5563L7.45532 16.6554H12.0889L16.6525 12.3699H16.6545Z" fill="white"/>
<path d="M23.8995 16.5698C23.8975 16.5581 23.6797 15.2903 23.4464 14.0051C23.3492 13.4762 23.2325 12.8189 23.1236 12.1987C22.9661 11.3042 22.8145 10.4603 22.7639 10.2153C22.6881 9.86144 22.1981 9.14005 21.78 8.55088L21.7314 8.48088C21.605 8.30199 21.1675 7.73033 20.8467 7.31033C20.6697 7.07894 20.5297 6.89616 20.5064 6.86311C20.4364 6.76394 20.2439 6.60255 20.2147 6.57922L17.3292 4.74561L17.2884 4.77672C17.0045 4.98866 16.7459 5.41061 17.1309 6.21755C17.4672 6.92144 18.4784 7.65449 18.632 7.76338C19.2425 9.20227 19.9775 10.3981 20.0747 10.5517C20.1584 11.9089 19.9717 12.8248 19.505 13.3517C19.3086 13.5734 19.0947 13.6862 18.8692 13.6862C18.6436 13.6862 18.4317 13.5695 18.2975 13.4801C18.2509 13.4489 18.1964 13.4062 18.1342 13.3595C17.8678 13.1514 17.4653 12.8384 16.8606 12.8384C16.1042 12.8384 15.7464 13.5481 15.7309 13.5773L15.7075 13.6239L18.3753 16.6514L23.9189 16.6592L23.9034 16.5698H23.8995ZM18.9411 14.8626C18.8809 14.8956 18.8206 14.9131 18.7681 14.9131C18.5911 14.9131 18.4628 14.7206 18.4006 14.3687C18.492 14.4212 18.6203 14.4698 18.7836 14.4698C18.9081 14.4698 19.0384 14.4406 19.1686 14.3823C19.1414 14.5514 19.0753 14.7867 18.9411 14.8626Z" fill="white"/>
<path d="M8.74632 21.818V21.538C8.74632 21.4758 8.7191 21.4446 8.65687 21.4446H7.75271V18.8741C7.75271 18.8119 7.72549 18.7808 7.66326 18.7808H7.14021C7.07799 18.7808 7.04688 18.8119 7.04688 18.8741V21.818C7.04688 21.8802 7.07799 21.9113 7.14021 21.9113H8.65687C8.7191 21.9113 8.74632 21.8802 8.74632 21.818Z" fill="white"/>
<path d="M8.95825 21.3334C8.95825 21.8078 9.45409 21.9673 9.97325 21.9673C10.2708 21.9673 10.5858 21.8973 10.6966 21.8253C10.8308 21.7417 10.8696 21.6523 10.8696 21.4617V20.2523C10.8696 19.7778 10.5099 19.5562 10.0588 19.5562C9.33547 19.5562 9.05742 19.8964 9.05742 20.1142C9.05742 20.2775 9.18575 20.3709 9.34131 20.3709C9.48325 20.3709 9.58047 20.3125 9.62909 20.1667C9.67381 20.0384 9.76131 19.8887 9.97131 19.8887C10.1308 19.8887 10.2455 19.9995 10.2455 20.19V20.4817C9.6952 20.5828 8.9602 20.7248 8.9602 21.3334H8.95825ZM10.2435 21.4131C10.2435 21.5764 10.1016 21.6309 9.95575 21.6309C9.71659 21.6309 9.57853 21.4792 9.57853 21.2809C9.57853 20.9309 9.90131 20.8278 10.2435 20.7617V21.4131Z" fill="white"/>
<path d="M13.3197 21.8175V20.2348C13.3197 19.7389 12.8686 19.5562 12.3144 19.5562C11.9722 19.5562 11.6591 19.6145 11.4997 19.6884C11.3577 19.7545 11.3188 19.8167 11.3188 19.9723V21.8156C11.3188 21.8778 11.3461 21.9089 11.4063 21.9089H11.8769C11.9391 21.9089 11.9702 21.8778 11.9702 21.8156V20.1706C11.9702 20.0325 12.0111 19.9003 12.2988 19.9003C12.5866 19.9003 12.6702 20.0734 12.6702 20.2639V21.8156C12.6702 21.8778 12.6975 21.9089 12.7597 21.9089H13.2341C13.2963 21.9089 13.3236 21.8778 13.3236 21.8156L13.3197 21.8175Z" fill="white"/>
<path d="M14.8461 21.9675C15.1475 21.9675 15.4664 21.8917 15.5869 21.812C15.7153 21.7284 15.76 21.6447 15.76 21.4756V18.6134C15.76 18.5511 15.7289 18.52 15.6667 18.52H15.2019C15.1397 18.52 15.1144 18.5511 15.1144 18.6134V19.6672C15.0561 19.6322 14.9142 19.5603 14.7061 19.5603C14.0275 19.5603 13.6775 20.1631 13.6775 20.8184C13.6775 21.4736 14.0003 21.9656 14.848 21.9656L14.8461 21.9675ZM14.8383 19.8986C14.9764 19.8986 15.0561 19.9434 15.1125 19.9822V21.3822C15.1125 21.5106 15.023 21.5825 14.8461 21.5825C14.5855 21.5825 14.3328 21.2986 14.3328 20.7445C14.3328 20.1903 14.5369 19.8986 14.8383 19.8986Z" fill="white"/>
<path d="M17.1465 21.9678C17.6871 21.9678 18.0371 21.5419 18.0371 21.2055C18.0371 21.1219 17.9827 21.0597 17.9049 21.0597C17.8427 21.0597 17.794 21.0908 17.759 21.1433C17.6696 21.2814 17.5549 21.4447 17.3079 21.4447C16.9054 21.4447 16.7227 21.0403 16.7227 20.5891C16.7227 20.138 16.9132 19.9028 17.1349 19.9028C17.3565 19.9028 17.4265 20.0894 17.4635 20.1828C17.5218 20.3383 17.6015 20.418 17.7513 20.418C17.9379 20.418 18.0293 20.3072 18.0293 20.14C18.0293 19.9183 17.7552 19.5586 17.1699 19.5586C16.5185 19.5586 16.1199 20.0097 16.1199 20.768C16.1199 21.5847 16.5943 21.9697 17.1485 21.9697L17.1465 21.9678Z" fill="white"/>
<path d="M18.249 21.3334C18.249 21.8078 18.7449 21.9673 19.264 21.9673C19.5615 21.9673 19.8746 21.8973 19.9874 21.8253C20.1196 21.7417 20.1604 21.6523 20.1604 21.4617V20.2523C20.1604 19.7778 19.8007 19.5562 19.3496 19.5562C18.6262 19.5562 18.3482 19.8964 18.3482 20.1142C18.3482 20.2775 18.4765 20.3709 18.6321 20.3709C18.774 20.3709 18.8712 20.3125 18.9199 20.1667C18.9646 20.0384 19.0521 19.8887 19.2601 19.8887C19.4196 19.8887 19.5343 19.9995 19.5343 20.19V20.4817C18.984 20.5828 18.249 20.7248 18.249 21.3334ZM19.5343 21.4131C19.5343 21.5764 19.3924 21.6309 19.2465 21.6309C19.0074 21.6309 18.8693 21.4792 18.8693 21.2809C18.8693 20.9309 19.194 20.8278 19.5343 20.7617V21.4131Z" fill="white"/>
<path d="M21.9491 20.2139C22.1182 20.2139 22.2057 20.103 22.2057 19.9358C22.2057 19.7219 22.0152 19.5586 21.5446 19.5586C21.2257 19.5586 20.938 19.6247 20.7921 19.6908C20.6502 19.7569 20.6055 19.8191 20.6055 19.9747V21.818C20.6055 21.8803 20.6327 21.9114 20.693 21.9114H21.1635C21.2257 21.9114 21.2569 21.8803 21.2569 21.818V20.0991C21.2569 19.9786 21.3463 19.9086 21.4824 19.9086C21.7313 19.9086 21.6555 20.2139 21.9471 20.2139H21.9491Z" fill="white"/>
<path d="M24.1951 21.0772C24.1328 21.0772 24.0901 21.1122 24.059 21.1569C23.9695 21.2852 23.7926 21.4622 23.5359 21.4622C23.1587 21.4622 22.974 21.1783 22.9331 20.8361L24.1523 20.6358C24.2631 20.6183 24.3156 20.5833 24.3156 20.455C24.3156 19.9669 23.9559 19.5547 23.4037 19.5547C22.8515 19.5547 22.3362 19.9183 22.3362 20.7427C22.3362 21.5672 22.8145 21.9658 23.4095 21.9658C23.954 21.9658 24.3273 21.5439 24.3273 21.2172C24.3273 21.1375 24.269 21.0752 24.199 21.0752L24.1951 21.0772ZM23.3317 19.9027C23.6059 19.9027 23.6992 20.1458 23.709 20.385L22.8923 20.523C22.9001 20.2255 23.0206 19.9027 23.3317 19.9027Z" fill="white"/>
<path d="M9.2053 23.278C9.19169 23.2391 9.1703 23.2119 9.12169 23.2119H8.88252C8.83002 23.2119 8.81252 23.2391 8.79891 23.278L7.68669 26.2161C7.67308 26.2511 7.66919 26.2608 7.66919 26.2783C7.66919 26.3094 7.69058 26.3405 7.7353 26.3405H7.95308C8.00169 26.3405 8.01919 26.3191 8.0328 26.2783L8.39252 25.2633H9.56308L9.91697 26.2783C9.93447 26.323 9.96169 26.3405 10.0006 26.3405H10.2709C10.3156 26.3405 10.3331 26.3133 10.3331 26.2783C10.3331 26.2686 10.3234 26.2433 10.3156 26.2161L9.20725 23.278H9.2053ZM8.47419 25.028L8.8378 24.0033C8.91363 23.7914 8.95252 23.5833 8.97002 23.4841H8.97974C8.99724 23.5814 9.04586 23.8069 9.1178 24.0033L9.47752 25.028H8.47613H8.47419Z" fill="white"/>
<path d="M12.2932 24.0459H12.0541C12.0093 24.0459 11.9918 24.0673 11.9918 24.112V25.8445C11.9918 26.0215 11.9335 26.1595 11.5096 26.1595C11.218 26.1595 11.0255 26.0098 11.0255 25.6948V24.112C11.0255 24.0673 11.008 24.0459 10.9632 24.0459H10.7241C10.6793 24.0459 10.658 24.0673 10.658 24.112V25.7123C10.658 26.3228 11.2121 26.3948 11.4902 26.3948C11.8441 26.3948 12.1027 26.3248 12.2038 26.2626C12.2932 26.2101 12.3593 26.1342 12.3593 25.9651V24.112C12.3593 24.0673 12.338 24.0459 12.2932 24.0459Z" fill="white"/>
<path d="M13.1914 24.5459C13.1914 24.3145 13.3295 24.1823 13.5686 24.1823C13.7903 24.1823 13.8914 24.3514 13.9595 24.5109C13.9906 24.5867 14.0431 24.6353 14.1325 24.6353C14.2123 24.6353 14.2881 24.5867 14.2881 24.472C14.2881 24.3262 14.1073 23.9937 13.5842 23.9937C13.1759 23.9937 12.8531 24.1939 12.8531 24.6237C12.8531 25.31 14.0003 25.2128 14.0003 25.7806C14.0003 26.0295 13.8195 26.1831 13.6095 26.1831C13.3567 26.1831 13.242 26.0275 13.1622 25.8156C13.1272 25.7262 13.0689 25.6737 12.9814 25.6737C12.8939 25.6737 12.8083 25.732 12.8083 25.8506C12.8083 26.0139 13.03 26.395 13.592 26.395C14.0528 26.395 14.3542 26.1287 14.3542 25.7125C14.3542 24.9775 13.1933 25.0962 13.1933 24.5459H13.1914Z" fill="white"/>
<path d="M15.7095 26.1597C15.6706 26.1597 15.6473 26.1734 15.5948 26.1734C15.4665 26.1734 15.307 26.1111 15.307 25.7884V24.26H15.6979C15.7426 24.26 15.7601 24.2425 15.7601 24.1978V24.1142C15.7601 24.0695 15.7426 24.0481 15.6979 24.0481H15.307V23.5036C15.307 23.4589 15.2895 23.4414 15.2545 23.4414C15.2409 23.4414 15.2331 23.4453 15.2137 23.455L14.9843 23.5931C14.9434 23.6145 14.9395 23.6417 14.9395 23.6864V24.05H14.6906C14.6459 24.05 14.6284 24.0714 14.6284 24.1161V24.1997C14.6284 24.2445 14.6459 24.262 14.6906 24.262H14.9395V25.7864C14.9395 26.3172 15.2681 26.3892 15.4587 26.3892C15.6493 26.3892 15.8009 26.3231 15.8009 26.2395C15.8009 26.1947 15.7737 26.1636 15.7115 26.1636L15.7095 26.1597Z" fill="white"/>
<path d="M16.9579 23.9917C16.7091 23.9917 16.4757 24.0539 16.3513 24.1161C16.2268 24.1784 16.1782 24.2484 16.1782 24.3864V26.2745C16.1782 26.3192 16.1957 26.3406 16.2404 26.3406H16.4796C16.5243 26.3406 16.5457 26.3192 16.5457 26.2745V24.4584C16.5457 24.2989 16.6663 24.2056 16.8646 24.2056C17.1213 24.2056 17.1038 24.4234 17.2904 24.4234C17.4013 24.4234 17.4596 24.3573 17.4596 24.26C17.4596 24.1181 17.3177 23.9936 16.9579 23.9936V23.9917Z" fill="white"/>
<path d="M18.5931 23.9917C17.9729 23.9917 17.7376 24.3767 17.7376 24.5498C17.7376 24.6606 17.8134 24.7189 17.9009 24.7189C18.0079 24.7189 18.0506 24.6567 18.074 24.5867C18.1323 24.4059 18.2509 24.1959 18.5387 24.1959C18.7565 24.1959 18.9101 24.365 18.9101 24.612V24.927C18.3618 25.0339 17.6384 25.1934 17.6384 25.7825C17.6384 26.1675 17.9845 26.395 18.4979 26.395C18.7604 26.395 19.0209 26.3192 19.1045 26.2628C19.2154 26.1831 19.264 26.1073 19.264 25.9167V24.6314C19.264 24.2056 18.9451 23.9936 18.5893 23.9936L18.5931 23.9917ZM18.912 25.907C18.912 26.1286 18.6962 26.185 18.5037 26.185C18.1673 26.185 17.9981 25.9809 17.9981 25.7553C17.9981 25.3334 18.4279 25.207 18.9101 25.1039V25.907H18.912Z" fill="white"/>
<path d="M19.9172 22.9512H20.1564C20.1933 22.9512 20.2225 22.9803 20.2225 23.0173V26.2742C20.2225 26.3112 20.1933 26.3403 20.1564 26.3403H19.9172C19.8802 26.3403 19.8511 26.3112 19.8511 26.2742V23.0173C19.8511 22.9803 19.8802 22.9512 19.9172 22.9512Z" fill="white"/>
<path d="M20.936 24.0459H21.1752C21.2121 24.0459 21.2413 24.0751 21.2413 24.112V26.2742C21.2413 26.3112 21.2121 26.3403 21.1752 26.3403H20.936C20.899 26.3403 20.8699 26.3112 20.8699 26.2742V24.112C20.8699 24.0751 20.899 24.0459 20.936 24.0459Z" fill="white"/>
<path d="M21.0546 23.1807C20.9205 23.1807 20.8252 23.274 20.8252 23.3887C20.8252 23.5034 20.9224 23.5968 21.0546 23.5968C21.1869 23.5968 21.2841 23.5034 21.2841 23.3887C21.2841 23.274 21.1869 23.1807 21.0546 23.1807Z" fill="white"/>
<path d="M22.6764 23.9917C22.0561 23.9917 21.8209 24.3767 21.8209 24.5498C21.8209 24.6606 21.8967 24.7189 21.9842 24.7189C22.0911 24.7189 22.1339 24.6567 22.1572 24.5867C22.2156 24.4059 22.3342 24.1959 22.6239 24.1959C22.8397 24.1959 22.9953 24.365 22.9953 24.612V24.927C22.447 25.0339 21.7236 25.1934 21.7236 25.7825C21.7236 26.1675 22.0697 26.395 22.5831 26.395C22.8436 26.395 23.1061 26.3192 23.1897 26.2628C23.3006 26.1831 23.3492 26.1073 23.3492 25.9167V24.6314C23.3492 24.2056 23.0303 23.9936 22.6745 23.9936L22.6764 23.9917ZM22.9953 25.907C22.9953 26.1286 22.7775 26.185 22.587 26.185C22.2506 26.185 22.0814 25.9809 22.0814 25.7553C22.0814 25.3334 22.5111 25.207 22.9934 25.1039V25.907H22.9953Z" fill="white"/>
</g>
</g>
<defs>
<clipPath id="clip0_4472_930">
<rect width="23.3333" height="28" fill="white" transform="translate(4 2)"/>
</clipPath>
</defs>
</svg>
