<svg width="900" height="600" viewBox="0 0 900 600" fill="none" xmlns="http://www.w3.org/2000/svg">
<g clip-path="url(#clip0_6502_38233)">
<mask id="mask0_6502_38233" style="mask-type:luminance" maskUnits="userSpaceOnUse" x="0" y="0" width="900" height="600">
<path d="M900 0H0V600H900V0Z" fill="white"/>
</mask>
<g mask="url(#mask0_6502_38233)">
<path d="M298.923 119.733L461.581 66.5482C472.786 62.8842 482.895 60.1512 492.343 59.0652C542.327 51.0232 565.645 78.8952 594.226 166.304L644.962 321.469C673.543 408.878 671.196 445.141 626.116 468.183C617.852 472.889 608.081 476.656 596.876 480.32L434.218 533.506C423.013 537.17 412.904 539.903 403.456 540.988C353.471 549.031 330.154 521.159 301.573 433.75L250.837 278.585C222.256 191.175 224.603 154.912 269.683 131.871C277.947 127.165 287.718 123.397 298.923 119.733Z" stroke="#E1E4E5" stroke-width="11" stroke-linecap="round" stroke-linejoin="round"/>
<path d="M366.68 93.4258H529.114C540.304 93.4258 550.231 93.9428 559.074 95.7508C606.541 103.24 619.355 135.263 619.355 222.552V377.504C619.355 464.793 606.541 496.816 559.074 504.305C550.231 506.113 540.304 506.629 529.114 506.629H366.68C355.491 506.629 345.564 506.113 336.72 504.305C289.254 496.816 276.439 464.793 276.439 377.504V222.552C276.439 135.263 289.254 103.24 336.72 95.7508C345.564 93.9428 355.491 93.4258 366.68 93.4258Z" fill="#91B55F"/>
<path d="M472.655 210.57H530.429M365.361 276.597H530.429M365.361 339.429H530.429M365.361 402.262H530.429M416.435 210.57H416.583M366.915 210.57H367.063" stroke="white" stroke-width="24" stroke-linecap="round" stroke-linejoin="round"/>
<path d="M698.193 468.955C687.502 474.259 673.311 467.44 673.311 467.44C673.311 467.44 676.465 452.024 687.163 446.728C697.854 441.425 712.039 448.237 712.039 448.237C712.039 448.237 708.885 463.652 698.193 468.955Z" fill="url(#paint0_linear_6502_38233)"/>
<path d="M234.2 375.135C246.509 382.512 264.168 375.692 264.168 375.692C264.168 375.692 261.859 356.914 249.543 349.545C237.234 342.168 219.582 348.98 219.582 348.98C219.582 348.98 221.891 367.757 234.2 375.135Z" fill="url(#paint1_linear_6502_38233)"/>
<path d="M569.652 262.389C563.997 262.389 559.414 266.973 559.414 272.627C559.414 278.282 563.997 282.865 569.652 282.865C575.306 282.865 579.89 278.282 579.89 272.627C579.89 266.973 575.306 262.389 569.652 262.389Z" fill="#91B55F"/>
<path d="M407.762 441.434C397.128 441.434 388.508 450.055 388.508 460.688C388.508 471.322 397.128 479.942 407.762 479.942C418.395 479.942 427.016 471.322 427.016 460.688C427.016 450.055 418.395 441.434 407.762 441.434Z" fill="#91B55F"/>
<path d="M640.237 532.955C631.796 532.955 624.953 526.112 624.953 517.671C624.953 509.23 631.796 502.387 640.237 502.387C648.679 502.387 655.521 509.23 655.521 517.671C655.521 526.112 648.679 532.955 640.237 532.955Z" fill="#91B55F"/>
<path d="M193.231 195.909C187.579 195.909 182.998 191.328 182.998 185.676C182.998 180.025 187.579 175.443 193.231 175.443C198.882 175.443 203.464 180.025 203.464 185.676C203.464 191.328 198.882 195.909 193.231 195.909Z" fill="#91B55F"/>
<path d="M220.766 473.553C214.024 473.553 208.559 468.087 208.559 461.346C208.559 454.604 214.024 449.139 220.766 449.139C227.507 449.139 232.973 454.604 232.973 461.346C232.973 468.087 227.507 473.553 220.766 473.553Z" fill="#E1E4E5"/>
<path d="M663.399 209.934C655.412 209.934 648.936 203.459 648.936 195.471C648.936 187.483 655.412 181.008 663.399 181.008C671.387 181.008 677.862 187.483 677.862 195.471C677.862 203.459 671.387 209.934 663.399 209.934Z" fill="#E1E4E5"/>
<path d="M612.252 93.5944C602.211 93.5944 594.072 85.4549 594.072 75.4144C594.072 65.3738 602.211 57.2344 612.252 57.2344C622.292 57.2344 630.432 65.3738 630.432 75.4144C630.432 85.4549 622.292 93.5944 612.252 93.5944Z" fill="#E1E4E5"/>
<path d="M246.577 81.8312C248.641 89.5344 244.069 97.4524 236.366 99.5165C228.663 101.581 220.745 97.0091 218.681 89.3059C216.617 81.6026 221.188 73.6847 228.891 71.6206C236.595 69.5565 244.513 74.1279 246.577 81.8312Z" fill="#E1E4E5"/>
<path d="M697.091 353.807C691.633 353.807 687.209 349.383 687.209 343.925C687.209 338.467 691.633 334.043 697.091 334.043C702.548 334.043 706.973 338.467 706.973 343.925C706.973 349.383 702.548 353.807 697.091 353.807Z" fill="#E1E4E5"/>
<path d="M286.168 545.197C278.007 545.197 271.391 539.904 271.391 533.376C271.391 526.847 278.007 521.555 286.168 521.555C294.329 521.555 300.945 526.847 300.945 533.376C300.945 539.904 294.329 545.197 286.168 545.197Z" fill="#E1E4E5"/>
</g>
</g>
<defs>
<linearGradient id="paint0_linear_6502_38233" x1="657.136" y1="485.499" x2="745.321" y2="415.745" gradientUnits="userSpaceOnUse">
<stop stop-color="white"/>
<stop offset="1" stop-color="#EEEEEE"/>
</linearGradient>
<linearGradient id="paint1_linear_6502_38233" x1="281.832" y1="398.881" x2="182.79" y2="306.859" gradientUnits="userSpaceOnUse">
<stop stop-color="white"/>
<stop offset="1" stop-color="#EEEEEE"/>
</linearGradient>
<clipPath id="clip0_6502_38233">
<rect width="900" height="600" fill="white"/>
</clipPath>
</defs>
</svg>
