<svg width="381" height="286" viewBox="0 0 381 286" fill="none" xmlns="http://www.w3.org/2000/svg">
    <g clip-path="url(#clip0_1211_4112)">
        <path
            d="M293.702 134.987C287.013 136.571 279.939 130.899 279.939 130.899C279.939 130.899 283.715 122.661 290.405 121.081C297.094 119.497 304.165 125.164 304.165 125.164C304.165 125.164 300.39 133.402 293.702 134.987Z"
            fill="url(#paint0_linear_1211_4112)" />
        <path
            d="M288.001 60.6718C280.512 65.8302 269.07 62.2241 269.07 62.2241C269.07 62.2241 269.779 50.2557 277.273 45.102C284.763 39.943 296.2 43.5445 296.2 43.5445C296.2 43.5445 295.491 55.5129 288.001 60.6718Z"
            fill="url(#paint1_linear_1211_4112)" />
        <path
            d="M80.5176 130.984C77.6491 133.903 72.2847 133.288 72.2847 133.288C72.2847 133.288 71.5751 127.939 74.4462 125.021C77.3147 122.101 82.6765 122.715 82.6765 122.715C82.6765 122.715 83.3861 128.064 80.5176 130.984Z"
            fill="url(#paint2_linear_1211_4112)" />
        <path
            d="M304.089 170.808C301.087 170.808 298.654 173.241 298.654 176.242C298.654 179.244 301.087 181.677 304.089 181.677C307.09 181.677 309.523 179.244 309.523 176.242C309.523 173.241 307.09 170.808 304.089 170.808Z"
            fill="#75A237" fill-opacity="0.8" />
        <path
            d="M104.437 203.934C100.214 203.934 96.791 207.247 96.791 211.333C96.791 215.42 100.214 218.733 104.437 218.733C108.661 218.733 112.084 215.42 112.084 211.333C112.084 207.247 108.661 203.934 104.437 203.934Z"
            fill="#75A237" fill-opacity="0.8" />
        <path
            d="M93.8102 105.842C92.3117 105.842 91.0969 104.627 91.0969 103.128C91.0969 101.63 92.3117 100.415 93.8102 100.415C95.3087 100.415 96.5234 101.63 96.5234 103.128C96.5234 104.627 95.3087 105.842 93.8102 105.842Z"
            fill="#75A237" fill-opacity="0.8" />
        <path
            d="M258.803 48.1434C255.942 48.1434 253.623 45.8244 253.623 42.9638C253.623 40.1032 255.942 37.7842 258.803 37.7842C261.663 37.7842 263.982 40.1032 263.982 42.9638C263.982 45.8244 261.663 48.1434 258.803 48.1434Z"
            fill="#75A237" fill-opacity="0.8" />
        <path
            d="M296.584 219.98C294.011 219.98 291.925 217.894 291.925 215.321C291.925 212.749 294.011 210.663 296.584 210.663C299.157 210.663 301.242 212.749 301.242 215.321C301.242 217.894 299.157 219.98 296.584 219.98Z"
            fill="#E1E4E5" />
        <path
            d="M123.363 224.987C122.41 224.987 121.636 224.214 121.636 223.26C121.636 222.306 122.41 221.533 123.363 221.533C124.317 221.533 125.09 222.306 125.09 223.26C125.09 224.214 124.317 224.987 123.363 224.987Z"
            fill="#E1E4E5" />
        <path
            d="M248.842 33.3995C247.48 33.3995 246.376 32.2953 246.376 30.9332C246.376 29.571 247.48 28.4668 248.842 28.4668C250.204 28.4668 251.309 29.571 251.309 30.9332C251.309 32.2953 250.204 33.3995 248.842 33.3995Z"
            fill="#E1E4E5" />
        <path
            d="M111.388 125.517C111.732 126.803 110.969 128.124 109.683 128.469C108.398 128.813 107.076 128.05 106.731 126.764C106.387 125.478 107.15 124.157 108.436 123.812C109.722 123.468 111.043 124.231 111.388 125.517Z"
            fill="#E1E4E5" />
        <path
            d="M105.465 84.2265C103.694 84.2265 102.259 82.7909 102.259 81.02C102.259 79.2491 103.694 77.8135 105.465 77.8135C107.236 77.8135 108.672 79.2491 108.672 81.02C108.672 82.7909 107.236 84.2265 105.465 84.2265Z"
            fill="#E1E4E5" />
        <path
            d="M285.075 155.602C283.713 155.602 282.608 154.719 282.608 153.629C282.608 152.54 283.713 151.656 285.075 151.656C286.437 151.656 287.541 152.54 287.541 153.629C287.541 154.719 286.437 155.602 285.075 155.602Z"
            fill="#E1E4E5" />
        <path
            d="M214.405 20.8912C215.122 23.5671 213.534 26.3176 210.858 27.0346C208.182 27.7516 205.431 26.1636 204.714 23.4877C203.997 20.8118 205.585 18.0613 208.261 17.3443C210.937 16.6273 213.688 18.2153 214.405 20.8912Z"
            fill="#E1E4E5" />
        <path
            d="M307.202 140.787H307.266C307.649 146.201 311.675 146.284 311.675 146.284C311.675 146.284 307.235 146.371 307.235 152.627C307.235 146.371 302.795 146.284 302.795 146.284C302.795 146.284 306.82 146.201 307.202 140.787ZM125.142 51.6689H125.253C125.911 61.1431 132.845 61.289 132.845 61.289C132.845 61.289 125.199 61.4407 125.199 72.3879C125.199 61.4407 117.553 61.289 117.553 61.289C117.553 61.289 124.484 61.1431 125.142 51.6689Z"
            fill="#E1E4E5" />
        <path fillRule="evenodd" clipRule="evenodd"
            d="M261.591 69.2952L232.085 39.7631C230.148 37.8242 227.849 36.2858 225.317 35.2357C222.786 34.1857 220.072 33.6447 217.332 33.6436H142.502C130.973 33.6436 121.635 42.9898 121.635 54.5292V200.729C121.635 212.268 130.973 221.615 142.502 221.615H246.838C258.367 221.615 267.705 212.268 267.705 200.729V84.0618C267.704 78.5241 265.505 73.2132 261.591 69.2952Z"
            fill="white" stroke="#E1E4E5" stroke-width="2.07039" />
        <path d="M155.415 106.61H219.814M155.415 135.782H219.814M155.279 164.855H227.743" stroke="#E1E4E5"
            stroke-width="13.0047" stroke-linecap="round" stroke-linejoin="round" />
        <path
            d="M282.93 187.888H205.684C193.855 187.888 184.266 197.477 184.266 209.306C184.266 221.135 193.855 230.725 205.684 230.725H282.93C294.759 230.725 304.348 221.135 304.348 209.306C304.348 197.477 294.759 187.888 282.93 187.888Z"
            fill="white" stroke="#E1E4E5" stroke-width="2.07039" />
        <path
            d="M223.24 209.306C223.24 199.804 215.537 192.101 206.035 192.101C196.533 192.101 188.83 199.804 188.83 209.306C188.83 218.808 196.533 226.511 206.035 226.511C215.537 226.511 223.24 218.808 223.24 209.306Z"
            fill="#75A237" fill-opacity="0.8" />
        <path fillRule="evenodd" clipRule="evenodd"
            d="M213.853 216.524V217.674C213.853 218.309 213.345 218.824 212.718 218.824H199.094C198.468 218.824 197.959 218.309 197.959 217.674V216.505C197.959 213.024 201.885 210.762 205.906 210.762C209.927 210.762 213.853 213.025 213.853 216.505M208.757 200.656C209.144 201.027 209.452 201.472 209.665 201.964C209.878 202.457 209.99 202.987 209.996 203.523C210.001 204.059 209.9 204.591 209.697 205.088C209.494 205.584 209.194 206.036 208.815 206.415C208.436 206.794 207.985 207.094 207.488 207.296C206.991 207.499 206.459 207.601 205.923 207.595C205.387 207.59 204.857 207.477 204.364 207.264C203.872 207.051 203.427 206.742 203.056 206.355C202.325 205.594 201.922 204.577 201.933 203.522C201.944 202.467 202.368 201.459 203.114 200.713C203.86 199.967 204.869 199.543 205.924 199.532C206.979 199.522 207.996 199.925 208.757 200.656Z"
            fill="white" />
        <path
            d="M289.074 197.719H229.033C227.966 197.719 227.102 198.583 227.102 199.65C227.102 200.716 227.966 201.581 229.033 201.581H289.074C290.141 201.581 291.005 200.716 291.005 199.65C291.005 198.583 290.141 197.719 289.074 197.719Z"
            fill="#E1E4E5" />
        <path
            d="M289.074 207.2H229.033C227.966 207.2 227.102 208.064 227.102 209.131C227.102 210.197 227.966 211.062 229.033 211.062H289.074C290.141 211.062 291.005 210.197 291.005 209.131C291.005 208.064 290.141 207.2 289.074 207.2Z"
            fill="#E1E4E5" />
        <path
            d="M289.074 216.68H229.033C227.966 216.68 227.102 217.544 227.102 218.611C227.102 219.677 227.966 220.542 229.033 220.542H289.074C290.141 220.542 291.005 219.677 291.005 218.611C291.005 217.544 290.141 216.68 289.074 216.68Z"
            fill="#E1E4E5" />
        <path
            d="M165.952 43.9951H88.7053C76.8764 43.9951 67.2871 53.5844 67.2871 65.4133C67.2871 77.2423 76.8764 86.8316 88.7053 86.8316H165.952C177.781 86.8316 187.37 77.2423 187.37 65.4133C187.37 53.5844 177.781 43.9951 165.952 43.9951Z"
            fill="white" stroke="#E1E4E5" stroke-width="2.07039" />
        <path
            d="M106.262 65.414C106.262 55.9119 98.5586 48.209 89.0565 48.209C79.5545 48.209 71.8516 55.9119 71.8516 65.414C71.8516 74.916 79.5545 82.6189 89.0565 82.6189C98.5586 82.6189 106.262 74.916 106.262 65.414Z"
            fill="#75A237" fill-opacity="0.8" />
        <path fillRule="evenodd" clipRule="evenodd"
            d="M96.8749 72.631V73.7816C96.8749 74.4162 96.3661 74.9317 95.7393 74.9317H82.1156C81.4893 74.9317 80.9805 74.4162 80.9805 73.7816V72.6123C80.9805 69.1315 84.9065 66.8696 88.9277 66.8696C92.9489 66.8696 96.8749 69.1325 96.8749 72.6123M91.7781 56.7629C92.165 57.1344 92.4739 57.5794 92.6867 58.0717C92.8995 58.5641 93.012 59.094 93.0174 59.6303C93.0229 60.1667 92.9212 60.6987 92.7184 61.1953C92.5157 61.6919 92.2159 62.143 91.8365 62.5222C91.4572 62.9015 91.0061 63.2012 90.5094 63.4039C90.0128 63.6066 89.4808 63.7081 88.9444 63.7026C88.4081 63.697 87.8782 63.5845 87.3859 63.3716C86.8936 63.1587 86.4487 62.8497 86.0773 62.4627C85.3468 61.7016 84.9438 60.6845 84.9547 59.6296C84.9656 58.5747 85.3895 57.5661 86.1355 56.8202C86.8816 56.0743 87.8902 55.6506 88.9451 55.6399C90 55.6292 91.0171 56.0324 91.7781 56.7629Z"
            fill="white" />
        <path
            d="M172.098 53.8281H112.056C110.99 53.8281 110.125 54.6927 110.125 55.7593C110.125 56.8258 110.99 57.6904 112.056 57.6904H172.098C173.164 57.6904 174.029 56.8258 174.029 55.7593C174.029 54.6927 173.164 53.8281 172.098 53.8281Z"
            fill="#E1E4E5" />
        <path
            d="M172.096 63.3066H112.054C110.988 63.3066 110.123 64.1713 110.123 65.2378C110.123 66.3044 110.988 67.169 112.054 67.169H172.096C173.162 67.169 174.027 66.3044 174.027 65.2378C174.027 64.1713 173.162 63.3066 172.096 63.3066Z"
            fill="#E1E4E5" />
        <path
            d="M172.096 72.7871H112.054C110.988 72.7871 110.123 73.6517 110.123 74.7183C110.123 75.7848 110.988 76.6494 112.054 76.6494H172.096C173.162 76.6494 174.027 75.7848 174.027 74.7183C174.027 73.6517 173.162 72.7871 172.096 72.7871Z"
            fill="#E1E4E5" />
        <path
            d="M287.008 70.3931H222.308C210.445 70.3931 200.828 80.0101 200.828 91.8734C200.828 103.737 210.445 113.354 222.308 113.354H287.008C298.872 113.354 308.489 103.737 308.489 91.8734C308.489 80.0101 298.872 70.3931 287.008 70.3931Z"
            fill="white" stroke="#E1E4E5" stroke-width="2.07039" />
        <path
            d="M239.803 91.8119C239.803 82.3099 232.1 74.6069 222.598 74.6069C213.096 74.6069 205.393 82.3099 205.393 91.8119C205.393 101.314 213.096 109.017 222.598 109.017C232.1 109.017 239.803 101.314 239.803 91.8119Z"
            fill="#75A237" fill-opacity="0.8" />
        <path fillRule="evenodd" clipRule="evenodd"
            d="M230.416 99.0284V100.179C230.416 100.814 229.907 101.329 229.28 101.329H215.657C215.03 101.329 214.521 100.814 214.521 100.179V99.0098C214.521 95.5289 218.447 93.267 222.469 93.267C226.49 93.267 230.416 95.53 230.416 99.0098M225.319 83.1604C225.706 83.5319 226.015 83.9768 226.228 84.4692C226.441 84.9615 226.553 85.4914 226.558 86.0278C226.564 86.5641 226.462 87.0962 226.259 87.5927C226.057 88.0893 225.757 88.5405 225.378 88.9197C224.998 89.2989 224.547 89.5987 224.05 89.8014C223.554 90.004 223.022 90.1056 222.485 90.1C221.949 90.0945 221.419 89.982 220.927 89.7691C220.435 89.5562 219.99 89.2472 219.618 88.8602C218.888 88.0991 218.485 87.0819 218.496 86.027C218.507 84.9721 218.931 83.9636 219.677 83.2177C220.423 82.4718 221.431 82.048 222.486 82.0373C223.541 82.0266 224.558 82.4298 225.319 83.1604Z"
            fill="white" />
        <path
            d="M289.597 80.2285H245.601C244.6 80.2285 243.789 81.0396 243.789 82.0401C243.789 83.0406 244.6 83.8517 245.601 83.8517H289.597C290.597 83.8517 291.408 83.0406 291.408 82.0401C291.408 81.0396 290.597 80.2285 289.597 80.2285Z"
            fill="#E1E4E5" />
        <path
            d="M289.338 89.5449H245.859C244.716 89.5449 243.789 90.4719 243.789 91.6153C243.789 92.7588 244.716 93.6857 245.859 93.6857H289.338C290.481 93.6857 291.408 92.7588 291.408 91.6153C291.408 90.4719 290.481 89.5449 289.338 89.5449Z"
            fill="#E1E4E5" />
        <path
            d="M289.597 99.3789H245.601C244.6 99.3789 243.789 100.19 243.789 101.191C243.789 102.191 244.6 103.002 245.601 103.002H289.597C290.597 103.002 291.408 102.191 291.408 101.191C291.408 100.19 290.597 99.3789 289.597 99.3789Z"
            fill="#E1E4E5" />
        <path
            d="M153.985 151.656H89.285C77.4218 151.656 67.8047 161.273 67.8047 173.137C67.8047 185 77.4218 194.617 89.285 194.617H153.985C165.848 194.617 175.465 185 175.465 173.137C175.465 161.273 165.848 151.656 153.985 151.656Z"
            fill="white" stroke="#E1E4E5" stroke-width="2.07039" />
        <path
            d="M106.781 173.074C106.781 163.572 99.0781 155.869 89.5761 155.869C80.074 155.869 72.3711 163.572 72.3711 173.074C72.3711 182.576 80.074 190.279 89.5761 190.279C99.0781 190.279 106.781 182.576 106.781 173.074Z"
            fill="#75A237" fill-opacity="0.8" />
        <path fillRule="evenodd" clipRule="evenodd"
            d="M97.3925 180.292V181.443C97.3925 182.077 96.8837 182.593 96.2568 182.593H82.6331C82.0069 182.593 81.498 182.077 81.498 181.443V180.273C81.498 176.793 85.424 174.531 89.4453 174.531C93.4665 174.531 97.3925 176.794 97.3925 180.273M92.2957 164.424C92.6826 164.796 92.9915 165.24 93.2043 165.733C93.4171 166.225 93.5295 166.755 93.535 167.291C93.5404 167.828 93.4388 168.36 93.236 168.856C93.0333 169.353 92.7334 169.804 92.3541 170.183C91.9748 170.563 91.5236 170.862 91.027 171.065C90.5304 171.268 89.9983 171.369 89.462 171.364C88.9256 171.358 88.3958 171.246 87.9035 171.033C87.4111 170.82 86.9662 170.511 86.5948 170.124C85.8644 169.363 85.4614 168.346 85.4723 167.291C85.4832 166.236 85.9071 165.227 86.6531 164.481C87.3991 163.735 88.4078 163.312 89.4627 163.301C90.5176 163.29 91.5347 163.693 92.2957 164.424Z"
            fill="white" />
        <path
            d="M156.573 161.49H112.577C111.577 161.49 110.766 162.301 110.766 163.302C110.766 164.302 111.577 165.113 112.577 165.113H156.573C157.574 165.113 158.385 164.302 158.385 163.302C158.385 162.301 157.574 161.49 156.573 161.49Z"
            fill="#E1E4E5" />
        <path
            d="M156.314 170.807H112.836C111.693 170.807 110.766 171.734 110.766 172.877C110.766 174.02 111.693 174.947 112.836 174.947H156.314C157.458 174.947 158.385 174.02 158.385 172.877C158.385 171.734 157.458 170.807 156.314 170.807Z"
            fill="#E1E4E5" />
        <path
            d="M156.573 180.641H112.577C111.577 180.641 110.766 181.452 110.766 182.452C110.766 183.453 111.577 184.264 112.577 184.264H156.573C157.574 184.264 158.385 183.453 158.385 182.452C158.385 181.452 157.574 180.641 156.573 180.641Z"
            fill="#E1E4E5" />
    </g>
    <path
        d="M137.394 283V269H139.214L146.204 279.96V269H147.884V283H146.074L139.074 272.04V283H137.394ZM154.587 283.26C153.667 283.26 152.827 283.023 152.067 282.55C151.314 282.077 150.71 281.443 150.257 280.65C149.81 279.85 149.587 278.967 149.587 278C149.587 277.267 149.717 276.583 149.977 275.95C150.237 275.31 150.594 274.75 151.047 274.27C151.507 273.783 152.04 273.403 152.647 273.13C153.254 272.857 153.9 272.72 154.587 272.72C155.507 272.72 156.344 272.957 157.097 273.43C157.857 273.903 158.46 274.54 158.907 275.34C159.36 276.14 159.587 277.027 159.587 278C159.587 278.727 159.457 279.407 159.197 280.04C158.937 280.673 158.577 281.233 158.117 281.72C157.664 282.2 157.134 282.577 156.527 282.85C155.927 283.123 155.28 283.26 154.587 283.26ZM154.587 281.58C155.214 281.58 155.777 281.417 156.277 281.09C156.784 280.757 157.18 280.32 157.467 279.78C157.76 279.233 157.907 278.64 157.907 278C157.907 277.347 157.757 276.747 157.457 276.2C157.164 275.653 156.767 275.217 156.267 274.89C155.767 274.563 155.207 274.4 154.587 274.4C153.96 274.4 153.397 274.567 152.897 274.9C152.397 275.227 152 275.663 151.707 276.21C151.414 276.757 151.267 277.353 151.267 278C151.267 278.667 151.417 279.273 151.717 279.82C152.017 280.36 152.42 280.79 152.927 281.11C153.434 281.423 153.987 281.58 154.587 281.58ZM172.663 283.26C171.716 283.26 170.826 283.073 169.993 282.7C169.16 282.32 168.426 281.8 167.793 281.14C167.166 280.473 166.673 279.7 166.313 278.82C165.96 277.94 165.783 277 165.783 276C165.783 275 165.96 274.06 166.313 273.18C166.673 272.3 167.166 271.53 167.793 270.87C168.426 270.203 169.16 269.683 169.993 269.31C170.826 268.93 171.716 268.74 172.663 268.74C173.796 268.74 174.84 269.003 175.793 269.53C176.746 270.057 177.536 270.757 178.163 271.63L176.673 272.43C176.206 271.817 175.616 271.33 174.903 270.97C174.196 270.603 173.45 270.42 172.663 270.42C171.936 270.42 171.256 270.567 170.623 270.86C169.996 271.153 169.446 271.557 168.973 272.07C168.5 272.583 168.13 273.177 167.863 273.85C167.596 274.523 167.463 275.24 167.463 276C167.463 276.767 167.596 277.487 167.863 278.16C168.136 278.833 168.51 279.427 168.983 279.94C169.463 280.453 170.016 280.857 170.643 281.15C171.276 281.437 171.95 281.58 172.663 281.58C173.476 281.58 174.23 281.397 174.923 281.03C175.623 280.657 176.206 280.17 176.673 279.57L178.163 280.38C177.536 281.253 176.746 281.953 175.793 282.48C174.84 283 173.796 283.26 172.663 283.26ZM184.021 283.26C183.101 283.26 182.261 283.023 181.501 282.55C180.747 282.077 180.144 281.443 179.691 280.65C179.244 279.85 179.021 278.967 179.021 278C179.021 277.267 179.151 276.583 179.411 275.95C179.671 275.31 180.027 274.75 180.481 274.27C180.941 273.783 181.474 273.403 182.081 273.13C182.687 272.857 183.334 272.72 184.021 272.72C184.941 272.72 185.777 272.957 186.531 273.43C187.291 273.903 187.894 274.54 188.341 275.34C188.794 276.14 189.021 277.027 189.021 278C189.021 278.727 188.891 279.407 188.631 280.04C188.371 280.673 188.011 281.233 187.551 281.72C187.097 282.2 186.567 282.577 185.961 282.85C185.361 283.123 184.714 283.26 184.021 283.26ZM184.021 281.58C184.647 281.58 185.211 281.417 185.711 281.09C186.217 280.757 186.614 280.32 186.901 279.78C187.194 279.233 187.341 278.64 187.341 278C187.341 277.347 187.191 276.747 186.891 276.2C186.597 275.653 186.201 275.217 185.701 274.89C185.201 274.563 184.641 274.4 184.021 274.4C183.394 274.4 182.831 274.567 182.331 274.9C181.831 275.227 181.434 275.663 181.141 276.21C180.847 276.757 180.701 277.353 180.701 278C180.701 278.667 180.851 279.273 181.151 279.82C181.451 280.36 181.854 280.79 182.361 281.11C182.867 281.423 183.421 281.58 184.021 281.58ZM199.515 276.78V283H197.835V277.15C197.835 276.643 197.712 276.183 197.465 275.77C197.219 275.357 196.889 275.03 196.475 274.79C196.062 274.543 195.602 274.42 195.095 274.42C194.595 274.42 194.135 274.543 193.715 274.79C193.302 275.03 192.972 275.357 192.725 275.77C192.479 276.183 192.355 276.643 192.355 277.15V283H190.675V273H192.355V274.25C192.709 273.783 193.155 273.413 193.695 273.14C194.235 272.86 194.822 272.72 195.455 272.72C196.202 272.72 196.882 272.903 197.495 273.27C198.115 273.63 198.605 274.117 198.965 274.73C199.332 275.343 199.515 276.027 199.515 276.78ZM206.695 274.68H204.425L204.415 283H202.735L202.745 274.68H201.025V273H202.745L202.735 269.86H204.415L204.425 273H206.695V274.68ZM216.274 273H217.954V283H216.274L216.204 281.31C215.89 281.89 215.457 282.36 214.904 282.72C214.357 283.08 213.704 283.26 212.944 283.26C212.21 283.26 211.524 283.123 210.884 282.85C210.244 282.57 209.677 282.187 209.184 281.7C208.697 281.207 208.317 280.64 208.044 280C207.77 279.36 207.634 278.67 207.634 277.93C207.634 277.217 207.767 276.543 208.034 275.91C208.3 275.277 208.67 274.723 209.144 274.25C209.624 273.77 210.177 273.397 210.804 273.13C211.43 272.857 212.104 272.72 212.824 272.72C213.61 272.72 214.3 272.907 214.894 273.28C215.487 273.647 215.967 274.123 216.334 274.71L216.274 273ZM212.914 281.63C213.574 281.63 214.144 281.47 214.624 281.15C215.11 280.823 215.484 280.383 215.744 279.83C216.01 279.277 216.144 278.667 216.144 278C216.144 277.32 216.01 276.707 215.744 276.16C215.477 275.607 215.1 275.17 214.614 274.85C214.134 274.523 213.567 274.36 212.914 274.36C212.254 274.36 211.654 274.523 211.114 274.85C210.574 275.177 210.144 275.617 209.824 276.17C209.51 276.717 209.354 277.327 209.354 278C209.354 278.673 209.517 279.287 209.844 279.84C210.17 280.387 210.604 280.823 211.144 281.15C211.684 281.47 212.274 281.63 212.914 281.63ZM226.647 280.36L228.147 281.17C227.694 281.803 227.117 282.31 226.417 282.69C225.724 283.07 224.971 283.26 224.157 283.26C223.237 283.26 222.397 283.023 221.637 282.55C220.884 282.077 220.281 281.443 219.827 280.65C219.381 279.85 219.157 278.967 219.157 278C219.157 277.267 219.287 276.583 219.547 275.95C219.807 275.31 220.164 274.75 220.617 274.27C221.077 273.783 221.611 273.403 222.217 273.13C222.824 272.857 223.471 272.72 224.157 272.72C224.971 272.72 225.724 272.91 226.417 273.29C227.117 273.67 227.694 274.18 228.147 274.82L226.647 275.63C226.327 275.237 225.947 274.933 225.507 274.72C225.067 274.507 224.617 274.4 224.157 274.4C223.537 274.4 222.974 274.567 222.467 274.9C221.967 275.227 221.571 275.663 221.277 276.21C220.984 276.757 220.837 277.353 220.837 278C220.837 278.647 220.984 279.243 221.277 279.79C221.577 280.33 221.977 280.763 222.477 281.09C222.984 281.417 223.544 281.58 224.157 281.58C224.651 281.58 225.114 281.467 225.547 281.24C225.981 281.013 226.347 280.72 226.647 280.36ZM235.133 274.68H232.863L232.853 283H231.173L231.183 274.68H229.463V273H231.183L231.173 269.86H232.853L232.863 273H235.133V274.68ZM239.878 283.19C239.338 283.17 238.811 283.07 238.298 282.89C237.791 282.703 237.344 282.453 236.958 282.14C236.578 281.82 236.301 281.453 236.128 281.04L237.568 280.42C237.668 280.647 237.848 280.86 238.108 281.06C238.368 281.26 238.668 281.42 239.008 281.54C239.348 281.66 239.691 281.72 240.038 281.72C240.404 281.72 240.748 281.663 241.068 281.55C241.388 281.437 241.648 281.27 241.848 281.05C242.054 280.823 242.158 280.553 242.158 280.24C242.158 279.907 242.044 279.647 241.818 279.46C241.598 279.267 241.318 279.117 240.978 279.01C240.644 278.897 240.304 278.79 239.958 278.69C239.271 278.517 238.658 278.31 238.118 278.07C237.578 277.823 237.151 277.513 236.838 277.14C236.531 276.76 236.378 276.277 236.378 275.69C236.378 275.07 236.548 274.533 236.888 274.08C237.234 273.627 237.688 273.277 238.248 273.03C238.808 272.783 239.408 272.66 240.048 272.66C240.854 272.66 241.591 272.833 242.258 273.18C242.924 273.527 243.421 273.997 243.748 274.59L242.398 275.38C242.284 275.14 242.111 274.93 241.878 274.75C241.644 274.563 241.378 274.417 241.078 274.31C240.778 274.203 240.471 274.147 240.158 274.14C239.771 274.127 239.408 274.177 239.068 274.29C238.734 274.403 238.464 274.577 238.258 274.81C238.058 275.037 237.958 275.32 237.958 275.66C237.958 275.993 238.064 276.247 238.278 276.42C238.498 276.593 238.781 276.733 239.128 276.84C239.481 276.94 239.864 277.057 240.278 277.19C240.884 277.383 241.451 277.607 241.978 277.86C242.504 278.113 242.928 278.43 243.248 278.81C243.574 279.19 243.734 279.66 243.728 280.22C243.728 280.833 243.544 281.37 243.178 281.83C242.811 282.283 242.334 282.63 241.748 282.87C241.168 283.11 240.544 283.217 239.878 283.19Z"
        fill="#4F4F4F" />
    <defs>
        <linearGradient id="paint0_linear_1211_4112" x1="268.516" y1="138.926" x2="327.065" y2="111.266"
            gradientUnits="userSpaceOnUse">
            <stop stop-color="white" />
            <stop offset="1" stop-color="#EEEEEE" />
        </linearGradient>
        <linearGradient id="paint1_linear_1211_4112" x1="258.827" y1="77.5978" x2="317.783" y2="15.4311"
            gradientUnits="userSpaceOnUse">
            <stop stop-color="white" />
            <stop offset="1" stop-color="#EEEEEE" />
        </linearGradient>
        <linearGradient id="paint2_linear_1211_4112" x1="69.0725" y1="140.957" x2="89.8111" y2="108.447"
            gradientUnits="userSpaceOnUse">
            <stop stop-color="white" />
            <stop offset="1" stop-color="#EEEEEE" />
        </linearGradient>
        <clipPath id="clip0_1211_4112">
            <rect width="380.435" height="250" fill="white" />
        </clipPath>
    </defs>
</svg>